<svg width="24" height="24" viewBox="0 0 24 24" fill="none" xmlns="http://www.w3.org/2000/svg">
<g clip-path="url(#clip0_891_402)">
<g clip-path="url(#clip1_891_402)">
<path fill-rule="evenodd" clip-rule="evenodd" d="M22.0419 10.5525C21.1544 9.30705 20.1498 8.14928 19.0419 7.095L17.9994 8.1525C19.0564 9.14717 20.0112 10.2451 20.8494 11.43C21.0902 11.7719 21.0902 12.2281 20.8494 12.57C19.4994 14.43 15.9744 18.75 11.9994 18.75C10.7379 18.7143 9.50849 18.3442 8.43693 17.6775L7.35693 18.75C8.73225 19.6773 10.3415 20.1973 11.9994 20.25C16.6719 20.25 20.5794 15.495 22.0419 13.4475C22.656 12.5802 22.656 11.4198 22.0419 10.5525Z" fill="#05be50"/>
<path fill-rule="evenodd" clip-rule="evenodd" d="M4.97175 16.905L5.99925 15.8475C4.94478 14.8531 3.99023 13.7579 3.14925 12.5775C2.91027 12.2296 2.91027 11.7704 3.14925 11.4225C4.49925 9.57 8.02425 5.25 11.9992 5.25C13.2608 5.28568 14.4902 5.6558 15.5617 6.3225L16.6417 5.25C15.2664 4.32269 13.6571 3.80273 11.9992 3.75C7.32675 3.75 3.41925 8.505 1.96425 10.5525C1.34102 11.4169 1.34102 12.5831 1.96425 13.4475C2.84944 14.697 3.85691 15.8552 4.97175 16.905Z" fill="#05be50"/>
<rect x="3.21552" y="19.7216" width="23.3325" height="1.5" rx="0.75" transform="rotate(-45 3.21552 19.7216)" fill="#05be50"/>
<path d="M14.6466 9.35248L13.5891 10.41L14.6466 9.35248Z" fill="#05be50"/>
<path d="M9.35193 14.6475L10.4094 13.59L9.35193 14.6475Z" fill="#05be50"/>
<path fill-rule="evenodd" clip-rule="evenodd" d="M14.2495 11.88C14.2527 11.9199 14.2527 11.9601 14.2495 12C14.2495 13.2426 13.2421 14.25 11.9995 14.25H11.8795L10.6345 15.5025C12.0198 16.04 13.5918 15.7088 14.6425 14.6581C15.6932 13.6073 16.0244 12.0353 15.487 10.65L14.2495 11.88Z" fill="#05be50"/>
<path fill-rule="evenodd" clip-rule="evenodd" d="M9.74945 12.12C9.74625 12.0801 9.74625 12.0399 9.74945 12C9.74945 10.7573 10.7568 9.74999 11.9995 9.74999H12.1195L13.3645 8.49749C11.9791 7.96001 10.4071 8.29121 9.35639 9.34193C8.30568 10.3926 7.97447 11.9647 8.51195 13.35L9.74945 12.12Z" fill="#05be50"/>
</g>
</g>
<defs>
<clipPath id="clip0_891_402">
<rect width="24" height="24" fill="white"/>
</clipPath>
<clipPath id="clip1_891_402">
<rect width="21.75" height="18" fill="white" transform="translate(1.07886 3)"/>
</clipPath>
</defs>
</svg>
