<svg xmlns="http://www.w3.org/2000/svg" viewBox="-12 -12 84 84" width="100" height="100">
  <path fill="white" d="M0 0L60 0L60 60L0 60L0 0Z"/>
  
  <path fill="#0039A6" d="M43.9705 5.05577C48.4111 5.0315 51.9655 8.52541 54.1681 12.1805C56.025 15.2619 54.6044 18.9135 52.1875 21.3311C43.5233 29.9976 34.9724 38.9861 25.9944 47.3268C24.391 48.81 16.6546 52.2862 14.3291 53.4254C12.8604 54.2564 11.433 54.672 9.80782 55.0464C6.455 54.2782 5.68942 53.249 4.95539 50.0175C5.45811 47.7105 10.8313 36.4662 12.3223 34.5779C15.9287 30.0108 22.7138 23.8015 27.0072 19.3833C31.0813 15.1908 36.0448 10.1944 40.4543 6.2713C41.2651 5.54992 42.8757 5.25465 43.9705 5.05577Z"/>
  <path fill="white" d="M36.8319 16.6337C37.3878 16.6594 42.7118 22.1262 43.6088 22.9427C36.7017 29.5058 29.9799 37.0744 22.7716 43.3206C21.1984 44.6838 16.815 46.5895 14.8132 47.5603C13.2722 48.3827 11.6512 49.1341 10.0715 49.8868C11.8556 46.2651 14.3115 40.9585 16.3355 37.6348C17.4846 35.7479 22.682 30.8057 24.4729 29.0242L36.8319 16.6337Z"/>
  <path fill="white" d="M44.0754 9.92543C45.337 9.95571 46.2074 10.7035 47.1065 11.4878C51.35 15.1896 50.3557 16.1911 47.0571 19.4822C44.9463 17.2906 42.6819 15.0778 40.529 12.9131C41.8064 11.6861 42.5889 10.8864 44.0754 9.92543Z"/>

  <circle cx="30" cy="30" r="38" fill="none" stroke="#0039A6" stroke-width="2.5"/>
</svg>
