<svg id="Capa_1" data-name="Capa 1" xmlns="http://www.w3.org/2000/svg" width="2068.6" height="703.06" viewBox="0 0 2068.6 703.06">
  <defs>
    <style>
      .cls-2 {
        fill: #fff;
      }

      .cls-3 {
        fill: #002ea4;
      }
    </style>
  </defs>
  <g>
    <g>
      <g id="dfbd28bf-afb5-4f1a-b1f9-c3c73058a1f1">
        <g>
          <g id="bfad9c6e-f385-42fb-ab78-0cd45f1d9019">
            <path id="ab237a07-2e98-4c86-8365-cb13a6c80341" class="cls-2" d="M1238.23-401.44c0,8.81-2.22,15.73-7.16,20.51S1219-374,1209.74-374h-.08c-9.39,0-17-2-22.4-5.84A19.39,19.39,0,0,1,1179-396.5c-.08-7.16,2.55-13.33,9.3-17.2s17.21-5.6,33.26-5.6h16.72Zm-33.18-113.78c-23.63,0-39.11,6.42-50,14.9V-473a98,98,0,0,1,43.47-9.55c12.68,0,23.72,1.81,30.22,7s9.47,13.59,9.47,25.69v3.38h-16.8c-63.07.25-83.9,22.39-84.06,51.54s27,52.12,67.35,52.2h8.73c37.54-.08,63.39-24.13,63.48-59.12v-38.53c0-59.36-34.42-74.51-71.8-74.84M1048-375.66h.25c-12.68,0-24.21-3.71-31.7-13s-11.12-24-11.12-43.64c.08-27,16.3-49.07,38.62-49.15,12.92,0,23.63,3.62,30.79,12.76s10.78,23.22,10.78,44c0,27.83-15.31,49.08-37.29,49.08m3.29-139.4c-22.06,0-35.81,13-44.13,25l-3.13,4.53v-72.12H965.7V-426c0,55.9,33.84,83.65,77.81,83.65,50.14,0,81.76-39.19,81.84-89.33s-32-83.33-73.69-83.33m325-.16c-52.12.08-74.92,35.73-75,70.81l.24,98.39h38.45v-96.25c0-12.35,3.21-22.32,8.89-29.15s14-10.54,23.55-10.54c11.12,0,20.26,3.21,26.51,10.46s9.39,17.87,9.39,32.36V-346h38.7v-96.25c-.09-47.18-32.2-73-71.55-73m-737-43.15H598.5l.16,153.23c.17,38.86,19.76,61.83,62.08,62,18,0,28.82-5.84,33.26-15.14v-23.47c-7,3-16.46,4.45-28.15,4.45-8.81,0-16.14-2.23-21.16-7.58s-7.5-13.42-7.5-24.7V-481h34.5c16.88,0,24-10.62,24-18.36v-17.05H638.84ZM498.13-515.3c-52.11.08-74.92,35.73-75,70.8V-346h38.69v-96.17c0-12.35,3.21-22.31,9-29.23S484.71-482,494.26-482c11.12,0,20.26,3.3,26.51,10.46s9.39,17.95,9.39,32.36V-346h38.7v-96.17c-.09-47.18-32.2-72.95-71.55-73M352.32-346H391V-558.45h-38.7ZM867.73-446.55V-346h39.52v-97.9c0-13.09,2.63-22.56,8.07-28.82s13.42-9,23.21-9a65.15,65.15,0,0,1,10.71.91v-30.47c-4.94-2.47-11.36-4.11-19.84-4.11-43.81.08-61.51,30.62-61.67,64Zm-67.52,5.35c-7.74,2.71-20.17,3.79-40.26,3.79H739.12l.17-1.82.24-5.68c1-20.17,15.89-37.71,37.47-37.71,10,0,18.44,2.14,24.53,6.67S811-464.42,811-455.53c.16,6.42-3,11.69-10.79,14.33M781.44-516c-47.75.08-81.59,34.41-81.67,90.24,0,50.8,40.59,82.41,82,82.41,24.62,0,40-3.79,48.91-11.11v-28.24c-12.68,6.25-27.75,8.23-41,8.23-25.53.08-46.11-13.91-49.4-36.31l-.33-2h29.8c28,0,47.84-2.56,60.27-8.73S847.8-437,847.89-452.15c0-39.44-31.87-63.81-66.45-63.81" transform="translate(241.17 802.53)"/>
          </g>
          <g id="c9b1111f-eb3e-4dd1-bcf7-ecd14235dd48">
            <path id="_56016ccd-70ce-45f6-9a72-c035ae9ff4c9" data-name="56016ccd-70ce-45f6-9a72-c035ae9ff4c9" class="cls-2" d="M1558.75-433.71l-.9-1.07.9-1.07c17-21.41,53.93-63.15,67.76-75.67h-21.07c-13.59,0-23,1.49-32.77,10.54-19.52,18.45-35.65,40.1-52.2,61.59l-3.13,4.12.16-123.18h-38.86V-346h38.86v-85.63l3.13,4.12c18.69,24.78,37.54,49.81,59.28,72,6.83,6.83,17.62,11.11,26.59,11,10.79,0,16.88-2.72,21.16-7.82-10.87-12.93-55.49-65.13-68.67-81.27" transform="translate(241.17 802.53)"/>
          </g>
        </g>
      </g>
      <g id="_72f7164b-5396-4977-9c6a-3348fe6abc60" data-name="72f7164b-5396-4977-9c6a-3348fe6abc60">
        <g id="_67080c82-5659-45a9-9a2a-0c729ddd9853" data-name="67080c82-5659-45a9-9a2a-0c729ddd9853">
          <path id="c920847b-0344-4999-b69e-b133cdd976c6" class="cls-3" d="M191-384.23,28.75-354.92V-518.6L191-547.91ZM-.89-602.91a40.58,40.58,0,0,0-40.34,40.76h0v263.06H222a40.69,40.69,0,0,0,40.59-40.76h0V-602.91Z" transform="translate(241.17 802.53)"/>
        </g>
      </g>
    </g>
  </g>
</svg>
