<svg xmlns="http://www.w3.org/2000/svg" viewBox="-12 -12 84 84" width="100" height="100">
  <path fill="white" d="M0 0L60 0L60 60L0 60L0 0Z"/>
  
  <path fill="#0039A6" d="M27.3866 12.5905C37.462 11.649 47.0784 16.008 52.6843 24.575C56.2357 30.0022 55.0509 32.7274 51.1532 37.5984C46.5019 43.4111 39.9384 46.6515 32.5626 47.3681C26.7961 47.927 20.9989 46.6709 15.9809 43.7752C10.919 40.7984 6.41015 35.7544 4.91702 29.9794C7.50976 20.044 17.5706 13.6121 27.3866 12.5905Z"/>
  <path fill="white" d="M27.3339 17.5806C37.935 16.9183 44.942 20.72 50.0505 29.9953C46.146 37.4017 41.3333 40.8466 33.1469 42.315C22.8707 43.6105 14.7472 39.0515 9.98571 30.0179C13.6899 22.7761 19.302 18.724 27.3339 17.5806Z"/>
  <path fill="#0039A6" d="M28.9204 19.9065C34.4747 19.1169 39.6238 22.9615 40.4448 28.5112C41.2657 34.061 37.4502 39.2317 31.9052 40.084C26.3158 40.9431 21.0945 37.0902 20.267 31.496C19.4394 25.9018 23.3217 20.7024 28.9204 19.9065Z"/>
  <path fill="white" d="M28.9356 25.1129C31.6306 24.5276 34.2916 26.2315 34.8876 28.9242C35.4836 31.6168 33.7902 34.2846 31.1 34.8913C28.3946 35.5014 25.7085 33.7964 25.1092 31.0886C24.5098 28.3808 26.2254 25.7016 28.9356 25.1129Z"/>

  <circle cx="30" cy="30" r="38" fill="none" stroke="#0039A6" stroke-width="2.5"/>
</svg>
