<svg xmlns="http://www.w3.org/2000/svg" viewBox="-12 -12 84 84" width="100" height="100">
  <path fill="white" d="M0 0L60 0L60 60L0 60L0 0Z"/>
  <path fill="#0039A6" d="M47.1173 9.70743C49.1429 9.66873 51.2247 11.8489 50.0201 13.1537C40.1064 23.8921 29.2637 34.0198 19.0382 44.4782C17.2032 46.355 15.2211 48.4734 13.3537 49.7701C13.1333 49.7762 12.9127 49.7663 12.6937 49.7404C11.157 49.5464 10.0915 48.3548 10.3036 46.7679C11.276 44.9357 44.4393 11.6006 47.1173 9.70743Z"/>
  <path fill="#0039A6" d="M27.3956 12.5912C31.3425 12.1541 35.2756 13.0512 39.1369 13.7067C37.9682 15.0294 36.1738 16.7438 34.8995 18.0397C30.8786 17.1514 26.6943 17.3422 22.771 18.5928C16.9939 20.4956 12.7371 24.5885 10.0278 29.9626C10.9354 32.0285 12.0859 33.5966 13.4939 35.3309L15.6323 37.5016C14.7635 38.123 12.7833 40.1078 11.9187 40.9366C8.57578 37.4563 6.21202 34.76 4.90925 29.9875C7.56736 20.0387 17.5344 13.6228 27.3956 12.5912Z"/>
  <path fill="#0039A6" d="M47.9372 19.1326C50.0526 20.0822 55.7583 28.2919 54.8662 30.7118C49.8363 44.3562 36.8329 48.9808 23.9025 46.8739C23.1427 46.6236 21.6552 46.3736 20.8191 46.2089L25.0643 42.0382C36.2959 44.0155 44.5462 39.839 50.0372 30.0057C48.2635 26.6713 47.0678 25.0606 44.3159 22.5266C45.2699 21.8701 47.0353 20.0287 47.9372 19.1326Z"/>
  <path fill="#0039A6" d="M39.4697 27.6534L39.8318 27.8957C40.8019 31.7054 38.9571 35.7249 35.8717 38.0163C33.4447 39.8186 31.1461 40.0149 28.274 39.9545C28.1375 39.9256 27.9441 39.6996 27.8346 39.5896C28.1375 38.6329 37.9515 29.1572 39.4697 27.6534Z"/>
  <path fill="#0039A6" d="M29.4096 20.0805L32.6854 20.1082C29.6997 23.4578 25.492 27.4356 22.2571 30.6695L20.1473 32.7071C19.6235 25.8768 22.1288 20.9269 29.4096 20.0805Z"/>

  <circle cx="30" cy="30" r="38" fill="none" stroke="#0039A6" stroke-width="2.5"/>
</svg>
