<svg width="21" height="17" viewBox="0 0 21 17" fill="none" xmlns="http://www.w3.org/2000/svg">
<g clip-path="url(#clip0_891_323)">
<path fill-rule="evenodd" clip-rule="evenodd" d="M10.4997 12.0921C8.42917 12.0921 6.75067 10.4132 6.75067 8.3421C6.75067 6.27103 8.42917 4.5921 10.4997 4.5921C12.5702 4.5921 14.2487 6.27103 14.2487 8.3421C14.2487 9.33666 13.8537 10.2905 13.1507 10.9938C12.4476 11.697 11.494 12.0921 10.4997 12.0921ZM10.4997 6.0921C9.25738 6.0921 8.25028 7.09946 8.25028 8.3421C8.25028 9.58474 9.25738 10.5921 10.4997 10.5921C11.742 10.5921 12.7491 9.58474 12.7491 8.3421C12.7491 7.09946 11.742 6.0921 10.4997 6.0921Z" fill="#05be50"/>
<path fill-rule="evenodd" clip-rule="evenodd" d="M10.4997 16.5964C5.8284 16.5964 1.92192 11.8402 0.4673 9.79213C-0.155767 8.92753 -0.155767 7.76097 0.4673 6.89638C1.92192 4.84834 5.8284 0.0921021 10.4997 0.0921021C15.171 0.0921021 19.0775 4.84834 20.5396 6.89638C21.1535 7.76391 21.1535 8.92459 20.5396 9.79213V9.79213C19.0775 11.8402 15.171 16.5964 10.4997 16.5964ZM10.4997 1.59247C6.52576 1.59247 3.00168 5.91359 1.68202 7.76658C1.44311 8.11458 1.44311 8.57387 1.68202 8.92188C3.00168 10.7749 6.52576 15.096 10.4997 15.096C14.4737 15.096 17.9978 10.7749 19.3174 8.92188V8.92188C19.5581 8.57992 19.5581 8.12354 19.3174 7.78158C17.9978 5.91359 14.4737 1.59247 10.4997 1.59247Z" fill="#05be50"/>
</g>
<defs>
<clipPath id="clip0_891_323">
<rect width="21" height="16.5" fill="white" transform="translate(0 0.0921021)"/>
</clipPath>
</defs>
</svg>
